<?xml version="1.0" encoding="utf-8"?>
<!-- Generator: Adobe Illustrator 19.1.0, SVG Export Plug-In . SVG Version: 6.00 Build 0)  -->
<svg version="1.1" id="Layer_1" xmlns="http://www.w3.org/2000/svg" xmlns:xlink="http://www.w3.org/1999/xlink" x="0px" y="0px"
	 viewBox="148 -270.9 595.3 841.9" style="enable-background:new 148 -270.9 595.3 841.9;" xml:space="preserve">
<style type="text/css">
	.st0{fill:#1F1A17;}
	.st1{fill:#FFFFFF;stroke:#000000;stroke-width:0.1;}
	.st2{fill:#FFFFFF;fill-opacity:0.502;stroke:#000000;stroke-width:0.1;stroke-opacity:0.502;}
	.st3{fill:#C2C1C1;stroke:#000000;stroke-width:0.1;}
	.st4{fill:none;stroke:#000000;stroke-width:0.5;}
</style>
<symbol  id="villes" viewBox="-0.5 -0.5 1.1 1.1">
	<path class="st0" d="M0-0.5c0.3,0,0.5,0.2,0.5,0.5S0.3,0.5,0,0.5S-0.5,0.3-0.5,0S-0.3-0.5,0-0.5z"/>
</symbol>
<g id="Plan_x0020_1">
	
		<use xlink:href="#villes"  width="1.1" height="1.1" x="-0.5" y="-0.5" transform="matrix(-2.835 0 0 -2.835 160.6726 -256.257)" style="overflow:visible;"/>
	
		<use xlink:href="#villes"  width="1.1" height="1.1" x="-0.5" y="-0.5" transform="matrix(-1.0001 0 0 1.0001 213.9562 266.5099)" style="overflow:visible;"/>
	
		<use xlink:href="#villes"  width="1.1" height="1.1" x="-0.5" y="-0.5" transform="matrix(-1.0001 0 0 1.0001 203.1873 218.479)" style="overflow:visible;"/>
	
		<use xlink:href="#villes"  width="1.1" height="1.1" x="-0.5" y="-0.5" transform="matrix(-1.0001 0 0 1.0001 181.4585 143.9545)" style="overflow:visible;"/>
	<path class="st1" d="M261.8,289.2l-2.6-4.4l2.1-1.4l-0.4-1l-2.3,1.1l-1.7-3.2l2-1l-0.2-0.5l-2.1,1l-0.6-1l2.2-1l-0.3-0.5l-2.3,1.1
		l-0.1-0.5l2-1.2l-0.2-0.4l-2.7,1.4l-0.7-0.7l2.8-1.6l-0.3-0.5l-3,1.5l-0.6-1.3l3-1.8l-0.2-0.3l-3.2,1.7l-0.5-1.3l3.1-1.8l-0.3-0.5
		l-3.1,1.7l-0.6-1.1l3.2-1.8l-0.3-0.5l-2.3,1.1l-0.3-0.6l1.9-1.2l-0.3-0.5l-2.1,1l-0.4-0.7l2-1.1l-0.1-0.2l-2.4,1.1l-0.2-0.6
		l2.2-1.1l-0.1-0.3l-2.4,1.2l-0.2-0.5l2.1-1.3l-0.2-0.4l-2,1.1l-0.3-0.4l2-1.1l-0.2-0.4l-1.8,1.1l-0.2-0.5l2-1.1l-0.3-0.4l-2,1.3
		l-1.7-2.7h1.5l-0.2-0.5l-1.5,0l-0.1-0.3l1.5,0l-0.2-0.5l-1.5,0l-0.3-0.6l1.4,0.1l-0.1-0.4l-1.3,0l-2-3.6l2.2,0.1l0-0.3l-2.5-0.3
		l-1.9-4l-1-1.7c-0.3-0.4,0.1-0.5,0.4-0.7c0.5-0.4,0.3-0.5,0-0.8c-0.7-0.6-0.2-1.6-1.5-0.9c-0.8,0.4-1.4-2.1-1.7-2.7
		c-0.7-1.5-1-3.9-2.1-5.1c-0.7-1.3-1.2-2.5-2.3-3.5c-1.5-1.3-2.4-3.5-3-5.5c-0.8-2.8-2.6-6.1-4.1-8.5c-0.5-1.6-1.9-3.1-2.7-4.7
		c-2.4-5.2-5.9-10.4-9.1-15.2c-0.8-1-0.5-2.3-0.1-3.4c0.2-0.5-0.1-1.5-0.4-1.8c-0.6-0.7-1.1-1.6-1.7-2.4c-0.3-0.1-1-1.8-1.4-2.2
		c-0.9-0.8-2,0.1-2.6-1.1l-2.4-5c-0.5-1.3-1.1-2.5-1.3-3.9c-0.2-1.6-0.5-3.3-1-4.8c-0.6-3.1-2.6-5.8-2.6-9c0.3-0.7,0.5-2,0.6-2.8
		c0.3-1.5,0.3-2.9-1-3.9c-1.3-1-3.4-2-4-3.6l-0.9-2.3c-0.4-1.1-0.5-2.3-1.3-3.2c-0.5-0.6-0.8-1.3-1.2-1.9c-0.6-0.8-1-1.7-1.4-2.6
		c0-0.5-0.8-1.5-1-2c-1.2-2.1-1.8-4.4-3.1-6.5c0,0-0.4-0.5-0.5-0.7c-0.3-0.6-0.1-0.7,0-1.3c0.2-2.5-1.2-4.7-2.3-6.8
		c-0.6-1.3-1.5-2.5-2.5-3.5c-0.6-0.7-1.3-0.3-2-0.5c-4.4-0.9-1.7,4-3.9,5.2c-0.4,0.1-0.9,0.4-1.2,0.4c-0.3-0.2-0.4-0.6-0.4-1
		c1.1-0.8,0.9-1.9-0.6-1.4c-0.3,0.5-0.2,2.9-1.1,1.3c-0.9-1.6-4-1.1-5.3-0.4c-2.1,1.1-2.3,2.5-2,4.7c0,0.3,0,0.7,0,1
		c0.1,0.4,0.1,0.2,0.4,0.3c0.2,0.1,0,0.9,0.1,1.2c0.4,0.7,0.6,1.3,0.7,2.1c0.1,0.9,0.8,1.8,1.3,2.6c0.3,0.3,0.4,0.6,0.8,0.8
		c0.3,0.1,0.7,0.1,1,0.3c0.1,0.1-0.2,0.4,0,0.6c0.2,0.3,0.7,0.5,0.8,0.8c0.2,0.7-0.2,1,0.7,1.3c1,0.4,2.3,4.8,3.3,4.3
		c0.4-0.2,1.6-2,1.7-1.3c0.1,0.5,0.6,0.9,0.1,1.3c-0.4,0.4-0.7,0.7-1,1.1c-0.3,0.7,1,0.9,1.4,1.6c0.3,0.5,0.4,0.9,0.5,1.5
		c0.2,0.8,0.8,1.8,1.2,2.5c0.7,1.1,1.3,2.2,1.8,3.4l3.5,6.9c0.8,1.4,1.5,2.9,1.8,4.4c0.1,0.9,0.8,1.8,1.2,2.7l1.3,3.3
		c0.3,1.2,1.5,2.2,1.8,3.5c0.3,1.5,0.3,3.4,0.2,5l-0.7,9.4l-0.2,7.6c0,0.8-0.2,1.7-0.3,2.6l-0.1,7.9c1,3.6-2.2,7-4.2,9.6
		c0,0.3-0.3,0.6-0.4,0.8c-0.3,1-0.1,2.4-0.2,3.5c-0.2,1.5-0.2,3.1-0.2,4.7c0.6,1.9,1.7,2.9,3.4,4.1c1.8,1.4,3.3,2.7,4.4,4.7
		c0.5,0.7,0.7,1.8,0.9,2.6c0.2,1.1,1.6,3.1,2.5,3.8c1.1,0.8,2.9,1.4,3.3,2.7c0.1,1.2,0.5,3.9-0.5,4.8c-0.5,0.4-0.3,1.1-0.5,1.6
		c-0.1,0.3-0.3,0.5-0.4,0.8c-0.1,0.5,0,0.9,0,1.4c0.6,1.8,1.3,3,2.4,4.6c1.2,1.7,2.9,3.1,3.8,4.9c0.4,0.7,1,1.2,1.3,1.9l2,3.6
		l2.9,3.9c0.5,0.8,1.3,1.4,1.8,2.2c0.8,1.2,2.1,2.2,2.8,3.5l0.9,1.7c0.4,0.7,1.2,1.3,1.6,2c0.4,0.9,1.1,1.6,1.7,2.4l2.5,3.7
		c0.7,1.1,2.2,2.7,2.5,4c0.7,1.7,2,2.9,2.8,4.6c0.4,0.9,0.7,1.7,0.7,2.7c0,1.1,0.1,2,0.4,3l0,3.2c0,1-0.2,2.8,1.3,2.4
		c0.8-0.2,0.3,1.3,0.2,1.6l-0.6,3.1c0,1.2-1.2,1.4-1.7,2.2c-0.5,0.7-0.3,3.1-0.2,3.9c0.1,0.6,0.3,1,0.4,1.6l0.2,2.6
		c0.3,3.2,1.3,6.4,2.3,9.4c0,0.9,0.7,2.2,0.9,3.1c0.3,1.5,1.1,3.5,2.3,4.5c0.8,0.7,1.9,0.4,2.9,0.4c0.5,0,0.5,0.1,0.9,0.4
		c0.3,0.3,1.3,0.5,1.7,0.6l5.4,0.6l0-1.1l7.5,1.4c0.5,0.2,1.1,0.2,1.6,0.3c0.8,0.2,1.5,0.7,2.2,1.1c0.6,0.3,0.8,0.8,1.3,1.2
		l-0.4,0.6l0.4,0.3l-0.8,0.9l0.8,0.7l1.1-1l0.4,0.4l-1,1.1l0.1,0.1l1.1-1.1l0.5,0.3l-1,1.2l0.3,0.2l1-1.2l0.4,0.3l-1,1.2l0.3,0.2
		l0.9-1.1l0.5,0.4l-1,1.2l0.3,0.2l0.9-1.1l0.9,0.8l-0.8,1l0.3,0.2l0.8-1l0.5,0.4l-1,1.2l0.5,0.3l1.1-1.3l1.6,1.2l-0.8,1.5l0.3,0.1
		l0.8-1.4c1.1,0.8,2,1.1,3.3,1.3c1.7,0.3,3.1-1.5,3.9-2.9c0.2-0.3,0.5-0.5,0.6-0.8c0.3-0.6-0.3-1.1,0.6-1.2c1-0.2,0.9-0.6,1.2-1.5
		c-0.1-0.6,0.4-1.1,0-1.6c-0.7,0-0.3-2.4-0.4-3l-0.7-3.8c-0.8-0.1-1.2-1.1-1.2-1.9c1.2-0.3,0.5-1.1,0.7-1.7c0.3-0.1,0.5-0.2,0.7-0.5
		c0.1-0.1-0.7-0.4-0.8-1c-0.1-0.9,0-1.7-0.3-2.6c-0.3-0.4-1.1-0.7-1.6-0.7c-0.4-0.1-0.7-0.1-1.1-0.1c-0.4,0-1,0-1.1-0.5
		c-0.1-0.4-0.2-0.9-0.2-1.3l3.5-0.7l0-0.4l-3.4,0.3l0-0.6l2.7-0.5l0-0.5l-2.6,0.2l-0.6-0.5l-0.7-5.4l3.4-0.4l-0.1-0.6l-3.4,0.2
		l-0.3-2.3l3-0.2l-0.4-3.2l-2.8,0.1l-0.3-3l3.2,0.1l-0.2-0.4l-3.1-0.2l-0.3-0.8l1.6,0l-0.1-0.4l-1.3-0.1l-0.4-4.7l0.5,0l0.1-0.5
		l-0.7-0.1l-0.1-1l2.1,0l-0.1-1.4l-0.7,0l0-0.4l0.7,0l0-0.4l-2.6-0.1V307l2.6-0.4l-0.1-0.3l-2.6,0.3l0-1.1l2.3-0.3l0-0.4l-2.4,0.2
		l0-0.9l2.4-0.2l0-0.5l-2.7,0.2l-0.1-0.9l2.8-0.2l0-0.3l-2.9,0.2l0-0.4l2.7-0.3l-0.1-0.8l-2.3,0l0-0.9l2.3-0.1l-0.1-0.6l-2.4,0
		l0-0.6l2.1-0.2l-0.1-0.7l-2.2,0.1v-0.6l2.1-0.3l0-0.4l-1.3,0.1l-0.2-0.8l-0.5-1.1l1.5-1.1l-0.2-0.3c-0.4,0.3,0.7-0.4-1.5,0.8
		l-0.2-1.1l-0.1-0.8l1.3-0.6l-0.1-0.2l-1.6,0.3l-0.3-1.6L261.8,289.2L261.8,289.2z M269,378c-2.4-1-3.1-4.2-2.4-6.4
		c0.2-0.8,1.2-0.2,1.7-0.7c1-1.1,1.2-0.7,2.5-0.8c1.9-0.2,2.7-0.3,3.8,1.2c1.2,1.6,1.9,3.6,3.8,4.7c0.7,0.6,0.6,1,1.5,1.5
		c0.3,0.1,0.5,1,0.9,1.3c0.8,0.7-0.4,2.4-0.8,3c-1.1,1.6-3.1,0.1-4.3-0.5c-1.9-1-3.4-3-5.7-3.2L269,378z M195.8,269.7l2.3,2.5
		c0.7,0.7,0.9,1.6,1.5,2.4l1.2,1.6c0.4,0.6,1,1.9,1.5,2.3c0.5,0.6,0.6,1.3,1,2c0.4,0.6,1,1.1,1.4,1.6c0.8,1,1.5,1.9,2.2,3
		c0.4,0.8,0.7,1.6,1.5,2.1l4.6,5.6c0.4,0.5,1.2,1,1.5,1.6c0.1,0.3,1.1,1.7,1.4,1.6c0.4-1.6-0.9-2.3-1.4-3.6c-0.7-1.9-2-3.7-3.3-5.2
		c-1.1-0.6-1.9-2.9-2.6-3.9c-1-1.6-2.4-3.2-3.3-4.9l-2.8-4.1c-1-1.5-2.2-3.3-2.9-5c-1-0.8-1.5-2-2.6-2.6c-0.3-0.2-0.6-0.3-0.9-0.5
		c-0.2-0.1-1-0.9-1.1-0.8c-0.1,0.3,0.2,0.7,0.2,1.1c0.1,0.6-0.2,1-0.2,1.5c0,0.6,0.2,1,0.5,1.6L195.8,269.7L195.8,269.7z M170.3,130
		c-0.1,0-0.2,0.1-0.3,0.1c-0.8,0.2-1.9,0.8-2.6,1.2c-1.2,0.7-3,1.3-3.5,2.8c-0.1,0.3-0.2,0.6-0.2,1l0-0.1l-0.4,0l-1.3-2.6
		c0-0.9-0.5-2.2-0.3-3c0.3-1.2,1.1-1.5,2.1-2.1c0.7-0.4,0.8-0.7,1.3-1.3c0.6-0.9,1.9,0.3,2.2,0.9c0.3,0.6,1.9,1.6,2.6,2
		c0,0,0,0.1,0,0L170.3,130C170.3,130,170.3,130,170.3,130z M174.3,244.3c-0.4-0.6-1.1-0.7-1.4-1.4c-0.4-0.8-0.9-0.3-1.4-0.7
		c-0.4-0.2-0.3-0.6-0.5-1c-0.7-1.2-2.3-2.2-2.3-3.7c0-1.2,0.4-2.1,1-3.1c0.9-1.5,1.8-1.9,3.3-2.7c0.9-0.4,2.5-1,2.9-1.9
		c0.3-0.6,0.3-1.4,0.6-1.9c0.5-0.7,1.3-0.8,2.1-0.9c2.2-0.3,2.5,1.5,2.6,3.2c0,0.5,0.4,0.8,0.7,1.2c0.6,0.9-0.6,1.9-0.1,2.9
		c0.2,0.5,0.1,1.4,0.1,2c0.1,0.8,1,1.4,1.2,2.1c0.4,1.4-1.1,2-1.3,3.1c-0.2,0.8,0.6,0.4,1,0.3c1-0.4,1.3-0.6,2.5-0.3
		c1.6,0.9,2.7,3,3.8,4.4c1.2,1.6,1.7,3.1,1.2,5.1c0,0.1,0,0.1,0,0.2c-0.7,0.6-1.1,1-2,1c-1.7,0.1-2.3,0.1-3.5,1.4
		c-2,2.1-2.9,0.1-4.7-0.6c-0.9-0.3-1.6-0.6-2.3-1.3c-0.6-0.5-0.5-1.8-0.7-2.5c0-0.7-0.7-1.5-1.2-2c-0.7-0.7-0.8-1.6-1.3-2.3
		L174.3,244.3L174.3,244.3z M290.3,116.2H158v276.9h132.3V116.2z"/>
	<polygon class="st2" points="190.6,374.8 164,374.8 164,390.7 190.6,390.7 	"/>
	<g id="_210300416">
		<polygon id="_210290816" class="st3" points="189.4,380.8 183.3,380.8 183.3,381.8 189.4,381.8 		"/>
		<polygon id="_210278168" class="st1" points="183.3,380.8 177.3,380.8 177.3,381.8 183.3,381.8 		"/>
		<polygon id="_210272480" class="st3" points="177.3,380.8 171.2,380.8 171.2,381.8 177.3,381.8 		"/>
		<polygon id="_210276008" class="st1" points="171.2,380.8 165.1,380.8 165.1,381.8 171.2,381.8 		"/>
		<polygon id="_210302480" class="st3" points="179.7,383.8 170,383.8 170,384.8 179.7,384.8 		"/>
		<polygon id="_210287888" class="st1" points="189.4,383.8 179.7,383.8 179.7,384.8 189.4,384.8 		"/>
	</g>
	<path d="M179.4,378.4l0.2,0.4h1.4v-0.1c-0.4-0.4-0.7-0.7-0.9-0.9c-0.2-0.2-0.2-0.4-0.2-0.6c0-0.1,0-0.3,0.1-0.4
		c0.1-0.1,0.2-0.1,0.3-0.1c0.1,0,0.2,0,0.3,0.1c0.1,0.1,0.2,0.2,0.2,0.3h0.1c0-0.2-0.1-0.4-0.2-0.5c-0.1-0.1-0.3-0.2-0.4-0.2
		c-0.2,0-0.3,0.1-0.5,0.2c-0.1,0.1-0.2,0.3-0.2,0.4c0,0.1,0,0.2,0.1,0.4c0.1,0.2,0.2,0.4,0.4,0.6c0.3,0.3,0.5,0.5,0.5,0.6h-0.6
		c-0.1,0-0.2,0-0.3,0c-0.1,0-0.1,0-0.1-0.1C179.5,378.5,179.4,378.5,179.4,378.4L179.4,378.4L179.4,378.4z"/>
	<path id="_x31_" d="M177.7,376.4v1.6l-0.4-0.4c-0.1-0.1-0.1-0.1-0.1-0.1c0,0,0,0,0,0c0,0,0,0,0-0.1c0,0,0,0,0.1,0v-0.1h-0.7v0.1
		c0.1,0,0.2,0,0.2,0c0.1,0,0.1,0.1,0.2,0.1l0.4,0.4l-0.4,0.5c-0.1,0.1-0.2,0.2-0.2,0.3c-0.1,0.1-0.1,0.1-0.1,0.1c0,0-0.1,0-0.2,0
		v0.1h0.8v-0.1c0,0-0.1,0-0.1,0c0,0,0,0,0-0.1c0,0,0-0.1,0.1-0.1l0.5-0.6v0.5c0,0.1,0,0.2,0,0.2c0,0,0,0.1-0.1,0.1c0,0-0.1,0-0.2,0
		v0.1h0.8v-0.1c-0.1,0-0.1,0-0.2,0c0,0,0,0-0.1-0.1c0,0,0-0.1,0-0.2v-1.4c0-0.2,0-0.3,0-0.3c0,0,0-0.1,0-0.1c0,0,0,0,0.1,0
		c0,0,0.1,0,0.1,0l0-0.1L177.7,376.4L177.7,376.4L177.7,376.4z"/>
	<path id="_x31_2" d="M176,377.6c-0.1-0.1-0.2-0.2-0.2-0.2c-0.1,0-0.1-0.1-0.2-0.1c-0.1,0-0.1,0-0.2,0c-0.1,0-0.2,0-0.3,0.1
		c-0.1,0.1-0.1,0.1-0.1,0.2c-0.1-0.1-0.2-0.2-0.3-0.3c-0.1,0-0.2-0.1-0.3-0.1c-0.1,0-0.2,0-0.2,0.1c-0.1,0-0.1,0.1-0.2,0.2
		c0,0.1,0,0.2,0,0.3v0.7c0,0.1,0,0.2,0,0.2c0,0,0,0-0.1,0.1c0,0-0.1,0-0.2,0v0.1h0.8v-0.1h0c-0.1,0-0.1,0-0.2,0c0,0,0,0-0.1-0.1
		c0,0,0-0.1,0-0.2v-0.7c0-0.1,0-0.2,0-0.3c0-0.1,0.1-0.1,0.2-0.1c0.1,0,0.1,0,0.2,0c0.1,0,0.1,0.1,0.2,0.2l0,0l0,0.1v0.8
		c0,0.1,0,0.2,0,0.2c0,0,0,0-0.1,0.1c0,0-0.1,0-0.2,0v0.1h0.8v-0.1c-0.1,0-0.1,0-0.2,0c0,0-0.1-0.1-0.1-0.1c0,0,0-0.1,0-0.2v-0.7
		c0-0.1,0-0.2,0.1-0.3c0.1-0.1,0.1-0.1,0.2-0.1c0.1,0,0.1,0,0.2,0C175.9,377.6,175.9,377.6,176,377.6v0.9c0,0.1,0,0.2,0,0.2
		c0,0,0,0.1-0.1,0.1c0,0-0.1,0-0.2,0v0.1h0.8v-0.1c-0.1,0-0.1,0-0.2,0c0,0-0.1,0-0.1-0.1c0,0,0-0.1,0-0.2v-0.6c0-0.2,0-0.3,0-0.3
		c0,0,0-0.1,0-0.1c0,0,0,0,0.1,0c0,0,0.1,0,0.1,0l0-0.1l-0.5-0.2H176C176,377.3,176,377.6,176,377.6z"/>
	<path d="M182.4,386.5l-0.6-0.3h-0.1v2c0,0.1,0,0.2,0,0.2c0,0,0,0.1-0.1,0.1c0,0-0.1,0-0.2,0v0.1h0.9v-0.1c-0.1,0-0.2,0-0.2,0
		c0,0-0.1,0-0.1-0.1c0,0,0-0.1,0-0.3v-1.3c0-0.2,0-0.3,0-0.3c0,0,0-0.1,0-0.1c0,0,0,0,0.1,0C182.3,386.5,182.3,386.5,182.4,386.5
		C182.4,386.5,182.4,386.5,182.4,386.5z"/>
	<path id="_x31__1_" d="M179.6,387.3c-0.1-0.1-0.2-0.2-0.2-0.2c-0.1,0-0.1-0.1-0.2-0.1c-0.1,0-0.1,0-0.2,0c-0.1,0-0.2,0-0.3,0.1
		c-0.1,0.1-0.1,0.1-0.1,0.2c-0.1-0.1-0.2-0.2-0.3-0.3c-0.1,0-0.2-0.1-0.3-0.1c-0.1,0-0.2,0-0.2,0.1c-0.1,0-0.1,0.1-0.2,0.2
		c0,0.1,0,0.2,0,0.3v0.7c0,0.1,0,0.2,0,0.2c0,0,0,0-0.1,0.1c0,0-0.1,0-0.2,0v0.1h0.8v-0.1h0c-0.1,0-0.1,0-0.2,0c0,0,0,0-0.1-0.1
		c0,0,0-0.1,0-0.2v-0.7c0-0.1,0-0.2,0-0.3c0-0.1,0.1-0.1,0.2-0.1c0.1,0,0.1,0,0.2,0c0.1,0,0.1,0.1,0.2,0.2l0,0l0,0.1v0.8
		c0,0.1,0,0.2,0,0.2c0,0,0,0-0.1,0.1c0,0-0.1,0-0.2,0v0.1h0.8v-0.1c-0.1,0-0.1,0-0.2,0c0,0-0.1-0.1-0.1-0.1c0,0,0-0.1,0-0.2v-0.7
		c0-0.1,0-0.2,0.1-0.3c0.1-0.1,0.1-0.1,0.2-0.1c0.1,0,0.1,0,0.2,0C179.5,387.3,179.6,387.3,179.6,387.3v0.9c0,0.1,0,0.2,0,0.2
		c0,0,0,0.1-0.1,0.1c0,0-0.1,0-0.2,0v0.1h0.8v-0.1c-0.1,0-0.1,0-0.2,0c0,0-0.1,0-0.1-0.1c0,0,0-0.1,0-0.2v-0.6c0-0.2,0-0.3,0-0.3
		c0,0,0-0.1,0-0.1c0,0,0,0,0.1,0c0,0,0.1,0,0.1,0l0-0.1l-0.5-0.2h-0.1C179.6,387,179.6,387.3,179.6,387.3z"/>
	<path id="_x31_2_1_" d="M177,386.1c0,0-0.1,0-0.1,0.1c0,0-0.1,0.1-0.1,0.1c0,0,0,0.1,0.1,0.1c0,0,0.1,0.1,0.1,0.1s0.1,0,0.1-0.1
		c0,0,0.1-0.1,0.1-0.1s0-0.1-0.1-0.1C177.1,386.1,177,386.1,177,386.1z M176.8,387v1.3c0,0.1,0,0.2,0,0.2c0,0,0,0.1-0.1,0.1
		c0,0-0.1,0-0.2,0v0.1h0.8v-0.1c-0.1,0-0.1,0-0.2,0c0,0,0,0-0.1-0.1c0,0,0-0.1,0-0.2v-0.6c0-0.2,0-0.3,0-0.3c0,0,0-0.1,0-0.1
		c0,0,0,0,0.1,0c0,0,0.1,0,0.1,0l0-0.1L176.8,387L176.8,387L176.8,387z"/>
	<rect x="158" y="116.2" class="st4" width="132.3" height="276.9"/>
	<path d="M162.2,389.8c0-0.2,0-0.3-0.1-0.5c-0.1-0.2-0.2-0.3-0.4-0.4c-0.2-0.1-0.3-0.1-0.5-0.1c-0.2,0-0.4,0-0.5,0.1
		c-0.2,0.1-0.3,0.2-0.4,0.4c-0.1,0.2-0.1,0.3-0.1,0.5c0,0.2,0,0.4,0.1,0.5c0.1,0.2,0.2,0.3,0.4,0.4c0.2,0.1,0.3,0.1,0.5,0.1
		c0.2,0,0.4,0,0.5-0.1c0.2-0.1,0.3-0.2,0.4-0.4C162.1,390.2,162.2,390,162.2,389.8L162.2,389.8z M162,389.8c0,0.1,0,0.3-0.1,0.4
		c-0.1,0.1-0.2,0.2-0.3,0.3c-0.1,0.1-0.3,0.1-0.4,0.1c-0.1,0-0.3,0-0.4-0.1c-0.1-0.1-0.2-0.2-0.3-0.3c-0.1-0.1-0.1-0.3-0.1-0.4
		c0-0.1,0-0.3,0.1-0.4c0.1-0.1,0.2-0.2,0.3-0.3c0.1-0.1,0.3-0.1,0.4-0.1c0.2,0,0.3,0,0.4,0.1c0.1,0.1,0.2,0.2,0.3,0.3
		C162,389.5,162,389.7,162,389.8L162,389.8z M161,389.5l0-0.2c-0.1,0-0.2,0.1-0.3,0.2c-0.1,0.1-0.1,0.2-0.1,0.3
		c0,0.2,0.1,0.3,0.2,0.4c0.1,0.1,0.2,0.2,0.4,0.2c0.1,0,0.2,0,0.3-0.1c0.1,0,0.2-0.1,0.2-0.2c0-0.1,0.1-0.2,0.1-0.3
		c0-0.1,0-0.2-0.1-0.3c-0.1-0.1-0.1-0.1-0.2-0.2l0,0.2c0.1,0,0.1,0.1,0.2,0.1c0,0.1,0.1,0.1,0.1,0.2c0,0.1,0,0.2-0.1,0.3
		c-0.1,0.1-0.2,0.1-0.3,0.1c-0.1,0-0.2,0-0.3-0.1c-0.1-0.1-0.1-0.1-0.1-0.3c0-0.1,0-0.2,0.1-0.2C160.8,389.5,160.9,389.5,161,389.5
		L161,389.5z"/>
	<path id="_x31__2_" d="M160.1,386.9h0.2c-0.1,0.1-0.2,0.2-0.2,0.4c0,0.1,0,0.2,0.1,0.3c0.1,0.1,0.2,0.2,0.3,0.2
		c0.1,0.1,0.2,0.1,0.4,0.1c0.1,0,0.3,0,0.4-0.1c0.1,0,0.2-0.1,0.3-0.2c0.1-0.1,0.1-0.2,0.1-0.3c0-0.1,0-0.2-0.1-0.2
		c0-0.1-0.1-0.1-0.1-0.2h0.7v-0.2h-2L160.1,386.9L160.1,386.9z M160.8,387.6c-0.2,0-0.3,0-0.4-0.1c-0.1-0.1-0.1-0.2-0.1-0.3
		c0-0.1,0-0.2,0.1-0.3c0.1-0.1,0.2-0.1,0.4-0.1c0.2,0,0.3,0,0.4,0.1c0.1,0.1,0.1,0.2,0.1,0.3c0,0.1,0,0.2-0.1,0.3
		C161.2,387.6,161,387.6,160.8,387.6L160.8,387.6z"/>
	<polygon id="_x31_2_2_" points="160.7,386.3 161,386.3 161,385.6 160.7,385.6 	"/>
	<path id="_x31_23" d="M160.1,385.3h1.5v-0.2h-0.2c0.1,0,0.1-0.1,0.2-0.2c0-0.1,0.1-0.2,0.1-0.3c0-0.1,0-0.2-0.1-0.3
		c0-0.1-0.1-0.1-0.2-0.1c0.2-0.1,0.3-0.3,0.3-0.5c0-0.1,0-0.3-0.1-0.3c-0.1-0.1-0.2-0.1-0.4-0.1h-1v0.2h0.9c0.1,0,0.2,0,0.2,0
		c0,0,0.1,0,0.1,0.1c0,0,0,0.1,0,0.1c0,0.1,0,0.2-0.1,0.3c-0.1,0.1-0.2,0.1-0.3,0.1h-0.9v0.2h1c0.1,0,0.2,0,0.2,0.1
		c0.1,0,0.1,0.1,0.1,0.2c0,0.1,0,0.1-0.1,0.2c0,0.1-0.1,0.1-0.2,0.1c-0.1,0-0.2,0-0.3,0h-0.8L160.1,385.3L160.1,385.3z"/>
	<path id="_x31_234" d="M160.3,382c-0.1,0.1-0.1,0.2-0.2,0.3c0,0.1,0,0.2,0,0.3c0,0.2,0,0.3,0.1,0.4c0.1,0.1,0.2,0.1,0.3,0.1
		c0.1,0,0.1,0,0.2,0c0.1,0,0.1-0.1,0.1-0.1c0-0.1,0.1-0.1,0.1-0.2c0,0,0-0.1,0-0.2c0-0.2,0.1-0.3,0.1-0.4c0,0,0.1,0,0.1,0
		c0.1,0,0.2,0,0.2,0.1c0.1,0.1,0.1,0.2,0.1,0.3c0,0.1,0,0.2-0.1,0.3c0,0.1-0.1,0.1-0.2,0.1l0,0.2c0.1,0,0.2-0.1,0.3-0.1
		c0.1-0.1,0.1-0.1,0.1-0.2c0-0.1,0.1-0.2,0.1-0.3c0-0.1,0-0.2,0-0.3c0-0.1-0.1-0.1-0.1-0.2c0,0-0.1-0.1-0.2-0.1c0,0-0.1,0-0.2,0
		h-0.3c-0.2,0-0.4,0-0.4,0c-0.1,0-0.1,0-0.2-0.1v0.3C160.2,382,160.2,382,160.3,382L160.3,382z M160.8,382c0,0.1-0.1,0.2-0.1,0.4
		c0,0.1,0,0.2,0,0.2c0,0,0,0.1-0.1,0.1c0,0-0.1,0-0.1,0c-0.1,0-0.1,0-0.2-0.1c0,0-0.1-0.1-0.1-0.2c0-0.1,0-0.2,0.1-0.3
		s0.1-0.1,0.2-0.2C160.6,382,160.6,382,160.8,382L160.8,382L160.8,382z"/>
	<path id="_x31_2345" d="M159.6,381.4h2v-0.2h-0.2c0.1-0.1,0.1-0.1,0.2-0.2c0-0.1,0.1-0.1,0.1-0.2c0-0.1,0-0.2-0.1-0.3
		c-0.1-0.1-0.2-0.2-0.3-0.2c-0.1,0-0.2-0.1-0.4-0.1c-0.1,0-0.3,0-0.4,0.1c-0.1,0.1-0.2,0.1-0.3,0.2c-0.1,0.1-0.1,0.2-0.1,0.3
		c0,0.1,0,0.2,0.1,0.2c0,0.1,0.1,0.1,0.1,0.2h-0.7V381.4L159.6,381.4z M160.8,381.2c-0.2,0-0.3,0-0.4-0.1c-0.1-0.1-0.1-0.2-0.1-0.3
		c0-0.1,0-0.2,0.1-0.3c0.1-0.1,0.2-0.1,0.4-0.1c0.2,0,0.3,0,0.4,0.1c0.1,0.1,0.1,0.2,0.1,0.3c0,0.1,0,0.2-0.1,0.3
		C161.2,381.1,161,381.2,160.8,381.2L160.8,381.2z"/>
	<path id="_x31_23456" d="M160.6,379.9l0-0.2c-0.1,0-0.2-0.1-0.2-0.1c-0.1-0.1-0.1-0.2-0.1-0.3c0-0.1,0-0.2,0.1-0.3
		c0-0.1,0.1-0.1,0.2-0.1c0.1,0,0.1,0,0.1,0.1c0,0,0,0.1,0.1,0.3c0,0.2,0.1,0.3,0.1,0.4c0,0.1,0.1,0.1,0.1,0.2c0.1,0,0.1,0.1,0.2,0.1
		c0.1,0,0.1,0,0.2,0c0.1,0,0.1-0.1,0.1-0.1c0,0,0.1-0.1,0.1-0.2c0-0.1,0-0.1,0-0.2c0-0.1,0-0.2,0-0.3c0-0.1-0.1-0.2-0.1-0.2
		c-0.1,0-0.1-0.1-0.2-0.1l0,0.2c0.1,0,0.1,0,0.2,0.1c0,0.1,0.1,0.1,0.1,0.2c0,0.1,0,0.2-0.1,0.2c0,0-0.1,0.1-0.1,0.1
		c0,0-0.1,0-0.1,0c0,0,0-0.1-0.1-0.1c0,0,0-0.1-0.1-0.2c0-0.2-0.1-0.3-0.1-0.4c0-0.1-0.1-0.1-0.1-0.2c-0.1,0-0.1-0.1-0.2-0.1
		c-0.1,0-0.2,0-0.2,0.1c-0.1,0-0.1,0.1-0.2,0.2c0,0.1-0.1,0.2-0.1,0.3c0,0.2,0,0.3,0.1,0.4S160.4,379.9,160.6,379.9L160.6,379.9z"/>
	<polygon id="_x31_234567" points="160.1,378.3 160.4,378.3 160.4,378.1 160.1,378.1 	"/>
	<path id="_x31_2345678" d="M160.7,376.7l0-0.2c-0.2,0-0.3,0.1-0.4,0.2c-0.1,0.1-0.1,0.2-0.1,0.4c0,0.2,0.1,0.4,0.2,0.5
		c0.1,0.1,0.3,0.2,0.6,0.2c0.2,0,0.3,0,0.4-0.1c0.1-0.1,0.2-0.1,0.3-0.2c0.1-0.1,0.1-0.2,0.1-0.3c0-0.2,0-0.3-0.1-0.4
		c-0.1-0.1-0.2-0.2-0.3-0.2l0,0.2c0.1,0,0.2,0.1,0.2,0.1c0,0.1,0.1,0.1,0.1,0.2c0,0.1,0,0.2-0.1,0.3c-0.1,0.1-0.2,0.1-0.4,0.1
		c-0.2,0-0.3,0-0.4-0.1c-0.1-0.1-0.1-0.2-0.1-0.3c0-0.1,0-0.2,0.1-0.2C160.4,376.7,160.5,376.7,160.7,376.7z"/>
	<path id="_x31_23456789" d="M160.8,376.3c0.3,0,0.5-0.1,0.6-0.2c0.1-0.1,0.2-0.3,0.2-0.5c0-0.2-0.1-0.4-0.2-0.5
		c-0.1-0.1-0.3-0.2-0.5-0.2c-0.2,0-0.3,0-0.4,0.1c-0.1,0.1-0.2,0.1-0.3,0.2c-0.1,0.1-0.1,0.2-0.1,0.4c0,0.2,0.1,0.4,0.2,0.5
		C160.4,376.2,160.6,376.3,160.8,376.3L160.8,376.3z M160.8,376c-0.2,0-0.3,0-0.4-0.1c-0.1-0.1-0.1-0.2-0.1-0.3c0-0.1,0-0.2,0.1-0.3
		c0.1-0.1,0.2-0.1,0.4-0.1c0.2,0,0.3,0,0.4,0.1c0.1,0.1,0.1,0.2,0.1,0.3c0,0.1,0,0.2-0.1,0.3C161.2,376,161,376,160.8,376z"/>
	<path id="_x31_2345678910" d="M160.1,374.6h1.5v-0.2h-0.2c0.1,0,0.1-0.1,0.2-0.2c0-0.1,0.1-0.2,0.1-0.3c0-0.1,0-0.2-0.1-0.3
		c0-0.1-0.1-0.1-0.2-0.1c0.2-0.1,0.3-0.3,0.3-0.5c0-0.1,0-0.3-0.1-0.3c-0.1-0.1-0.2-0.1-0.4-0.1h-1v0.2h0.9c0.1,0,0.2,0,0.2,0
		c0,0,0.1,0,0.1,0.1c0,0,0,0.1,0,0.1c0,0.1,0,0.2-0.1,0.3c-0.1,0.1-0.2,0.1-0.3,0.1h-0.9v0.2h1c0.1,0,0.2,0,0.2,0.1
		c0.1,0,0.1,0.1,0.1,0.2c0,0.1,0,0.1-0.1,0.2c0,0.1-0.1,0.1-0.2,0.1c-0.1,0-0.2,0-0.3,0h-0.8L160.1,374.6L160.1,374.6z"/>
</g>
</svg>
